#!OML:ASF F:\VICON\USERDATA\INSTALL\rory3\rory3.ASF
:FULLY-SPECIFIED
:DEGREES
1212
root -0.838206 13.7388 17.3143 76.007 34.2546 83.6471
lowerback -20.8682 -3.18259 0.214697
upperback -12.4277 -3.49167 -3.31125
thorax -2.11635 -1.69715 -4.30697
lowerneck 2.03308 -9.73966 -2.38274
upperneck 41.3593 -7.79015 -15.1396
head 13.0316 -4.58542 -6.177
rclavicle -6.04305e-014 -5.40694e-014
rhumerus -22.0061 -20.7596 30.1447
rradius 39.166
rwrist -4.15067
rhand -15.0166 -39.9925
rfingers 7.12502
rthumb -168.851 830.324
lclavicle -6.04305e-014 -5.40694e-014
lhumerus 7.6265 14.4013 1.52458
lradius 24.3191
lwrist 39.5277
lhand -33.9573 -10.6502
lfingers 7.12502
lthumb -7.13831 19.2094
rfemur -31.9542 3.75658 33.4611
rtibia 47.2333
rfoot 7.96749 21.0744
rtoes -22.192
lfemur -9.60195 20.0573 -20.9451
ltibia 97.963
lfoot 3.62954 -1.69879
ltoes -4.10527
1213
root -0.83626 13.7623 17.2246 75.7285 37.1335 83.2842
lowerback -20.7745 -2.8618 3.25855
upperback -12.2906 -3.61458 -2.62081
thorax -2.19862 -1.91455 -5.30646
lowerneck 2.10299 -9.83278 -2.48792
upperneck 41.4196 -7.99453 -14.8908
head 13.0512 -4.65532 -6.07358
rclavicle -3.49861e-014 2.22639e-014
rhumerus -21.8349 -21.4395 30.3666
rradius 38.7701
rwrist -3.78045
rhand -15.1126 -42.4758
rfingers 7.12502
rthumb -168.944 827.835
lclavicle -3.49861e-014 2.22639e-014
lhumerus 7.65862 14.7713 1.77948
lradius 24.3524
lwrist 39.1674
lhand -33.9745 -9.64139
lfingers 7.12502
lthumb -7.15495 20.2177
rfemur -31.2454 3.55864 36.5299
rtibia 46.7255
rfoot 7.73289 20.9548
rtoes -21.9538
lfemur -9.12557 20.0436 -16.978
ltibia 98.2823
lfoot 3.22369 -2.63322
ltoes -3.58137
1214
root -0.833299 13.7517 17.1412 76.611 36.8937 83.7967
lowerback -21.4861 -3.02722 2.75352
upperback -12.3483 -3.73146 -2.60326
thorax -1.88168 -1.93184 -5.06161
lowerneck 2.15722 -9.94789 -2.31291
upperneck 41.4803 -8.14527 -14.9956
head 13.0298 -4.70088 -6.15266
rclavicle 7.95139e-015 8.26944e-014
rhumerus -21.8654 -21.4784 30.4782
rradius 38.776
rwrist -3.90537
rhand -14.3844 -39.1236
rfingers 7.12502
rthumb -168.242 831.226
lclavicle 7.95139e-015 8.26944e-014
lhumerus 7.64728 14.6526 1.80701
lradius 24.4565
lwrist 39.4756
lhand -34.3927 -8.25359
lfingers 7.12502
lthumb -7.55861 21.5913
rfemur -31.6372 3.73009 36.17
rtibia 46.3666
rfoot 7.11506 21.1819
rtoes -21.1921
lfemur -9.76131 19.5674 -17.737
ltibia 98.3129
lfoot 3.34068 -2.15032
ltoes -1.46267
1215
root -0.839203 13.7644 17.0623 76.968 38.8724 84.1236
lowerback -21.5923 -2.97066 4.55575
upperback -12.3397 -3.98068 -2.1857
thorax -1.9744 -2.14528 -5.68307
lowerneck 2.40436 -10.0759 -2.52192
upperneck 41.6145 -8.45434 -14.5378
head 13.0637 -4.79913 -5.95079
rclavicle -8.11041e-014 4.45278e-014
rhumerus -22.1196 -20.8831 30.5387
rradius 39.1045
rwrist -4.50143
rhand -14.5074 -38.507
rfingers 7.12502
rthumb -168.36 831.836
lclavicle -8.11041e-014 4.45278e-014
lhumerus 7.6648 14.3713 1.80327
lradius 24.5184
lwrist 39.755
lhand -34.547 -7.67298
lfingers 7.12502
lthumb -7.70759 22.1666
rfemur -31.1292 3.57892 38.132
rtibia 45.3019
rfoot 6.34618 21.7616
rtoes -20.3146
lfemur -9.77624 19.4943 -14.9519
ltibia 98.6679
lfoot 3.20561 -2.88209
ltoes -0.78692
1216
root -0.846417 13.7761 16.9692 76.6206 37.024 84.2153
lowerback -20.8063 -2.9945 3.08749
upperback -12.3941 -3.74588 -2.61091
thorax -2.29901 -1.9714 -5.22012
lowerneck 2.43219 -9.76777 -2.8855
upperneck 41.2637 -7.78653 -15.0865
head 12.9566 -4.62313 -6.03339
rclavicle 0 -9.54166e-015
rhumerus -22.0605 -21.0908 30.6753
rradius 39.0264
rwrist -4.48159
rhand -16.0061 -39.8119
rfingers 7.12502
rthumb -169.806 830.455
lclavicle 0 -9.54166e-015
lhumerus 7.69263 14.8028 2.08832
lradius 24.4039
lwrist 39.1028
lhand -34.2131 -7.63465
lfingers 7.12502
lthumb -7.38522 22.2164
rfemur -30.7594 4.05335 36.1606
rtibia 45.6592
rfoot 5.94903 21.8444
rtoes -19.149
lfemur -8.85733 19.7241 -17.2414
ltibia 98.1395
lfoot 3.20567 -2.25033
ltoes -1.53094
1217
root -0.848467 13.7956 16.8838 76.9868 40.5393 84.1858
lowerback -21.2259 -2.75896 6.52643
upperback -12.3502 -4.03841 -1.7602
thorax -2.33158 -2.28289 -6.32438
lowerneck 2.41165 -9.93242 -3.03266
upperneck 41.6735 -8.09258 -14.7236
head 13.1609 -4.72143 -5.92873
rclavicle -9.22361e-014 9.85972e-014
rhumerus -21.9892 -21.5723 30.8087
rradius 38.8975
rwrist -4.21061
rhand -12.7785 -38.2707
rfingers 7.12502
rthumb -166.693 832.174
lclavicle -9.22361e-014 9.85972e-014
lhumerus 7.64476 14.4444 1.96465
lradius 24.4208
lwrist 39.2653
lhand -33.9515 -7.99082
lfingers 7.12502
lthumb -7.13278 21.869
rfemur -30.8698 3.81916 39.7698
rtibia 45.593
rfoot 5.89021 22.0652
rtoes -17.8473
lfemur -9.23384 19.5106 -12.8002
ltibia 98.6577
lfoot 3.00916 -3.2143
ltoes -0.825861
